:SAMPLES-PER-SECOND 30
:FULLY-SPECIFIED
:DEGREES
17
root  -47.768 19.0816 -4.24064 -70.9691 85.3211 -133.617
RightUpLeg  -56.4041 -7.50202 -1.84842
RightLeg  110.065 9.29708 5.27814
RightFoot  -18.8957 -0.305021 -6.00307
RightToes  -7.56701e-010 -1.59028e-015 9.93923e-017
Spine  62.4311 1.84238 8.15338
Spine1  -17.9248 7.18908 4.84201
HEad  -60.0384 -4.64687 -0.68282
LeftShoulder1  9.93923e-017 0 1.22299e-017
LeftArm  -10.4716 -80.4653 -64.3324
LeftForeArm  -29.0996 -64.982 54.1099
LeftHand  1.8895 11.6758 5.85731
RightShoulder  1.98785e-016 -4.96962e-017 1.55301e-017
RightArm  11.1618 0.00230614 68.7233
RightForeArm  -59.2936 57.3994 -128.382
RightHand  4.26937 -16.8053 -27.8248
LeftUpLeg  -55.9272 -18.3007 2.90146
LeftLeg  98.1749 -11.876 -8.52881
LeftFoot  -11.7727 -0.138091 7.24649
LeftToes  1.17689e-009 -8.96121e-011 5.75302e-011
18
root  -46.9851 19.1454 -4.42205 -85.7859 82.7523 -147.26
RightUpLeg  -61.3262 -8.79533 0.833005
RightLeg  116.446 7.80855 7.07003
RightFoot  -21.7728 -0.424335 -5.62516
RightToes  -7.56701e-010 -1.59028e-015 9.93923e-017
Spine  61.7225 1.38846 8.40587
Spine1  -16.1824 6.6511 7.61391
HEad  -59.8116 -3.86098 -0.421618
LeftShoulder1  9.93923e-017 0 1.22299e-017
LeftArm  -2.31763 -77.4596 -72.3649
LeftForeArm  -32.967 -67.353 61.5783
LeftHand  2.12592 13.306 4.34019
RightShoulder  1.98785e-016 -4.96962e-017 1.55301e-017
RightArm  10.9086 -0.217967 69.0278
RightForeArm  -58.086 59.1709 -120.346
RightHand  4.27108 -16.8686 -27.6214
LeftUpLeg  -52.7508 -19.6946 5.5059
LeftLeg  95.9391 -12.0341 -9.33668
LeftFoot  -12.0582 -0.128105 7.84515
LeftToes  1.17689e-009 -8.96121e-011 5.75302e-011
19
root  -46.2003 19.2099 -4.52141 -95.6779 80.019 -155.529
RightUpLeg  -66.0959 -9.91488 3.41019
RightLeg  122.409 5.79298 8.87014
RightFoot  -24.9701 -0.474452 -4.53591
RightToes  -7.56701e-010 -1.59028e-015 9.93923e-017
Spine  60.7503 1.26743 8.59679
Spine1  -12.8285 5.9776 11.4106
HEad  -60.3247 -3.83664 -0.327906
LeftShoulder1  9.93923e-017 0 1.22299e-017
LeftArm  0.884241 -75.2499 -75.3754
LeftForeArm  -40.2948 -69.471 71.1821
LeftHand  2.38603 15.2464 3.01057
RightShoulder  1.98785e-016 -4.96962e-017 1.55301e-017
RightArm  9.4726 0.660743 67.8856
RightForeArm  -61.6449 59.7701 -117.9
RightHand  3.25419 -15.5264 -21.5241
LeftUpLeg  -49.2114 -21.2415 7.88428
LeftLeg  93.7221 -12.2925 -9.58075
LeftFoot  -12.1564 -0.114827 7.23491
LeftToes  1.17689e-009 -8.96121e-011 5.75302e-011
20
root  -45.4711 19.2408 -4.51737 -104.512 77.5706 -162.275
RightUpLeg  -70.694 -11.0532 5.45027
RightLeg  127.647 4.18012 9.54477
RightFoot  -27.3407 -0.610537 -4.84573
RightToes  -7.56701e-010 -1.59028e-015 9.93923e-017
Spine  58.9485 0.812862 8.68659
Spine1  -6.50825 4.52238 14.4194
HEad  -62.2266 -3.44975 0.647498
LeftShoulder1  9.93923e-017 0 1.22299e-017
LeftArm  3.96849 -75.4871 -77.8622
LeftForeArm  -47.1214 -70.6265 79.1777
LeftHand  2.64719 17.294 2.02466
RightShoulder  1.98785e-016 -4.96962e-017 1.55301e-017
RightArm  5.79543 4.27396 65.3312
RightForeArm  -67.028 59.6996 -119.506
RightHand  2.29546 -13.8725 -14.9659
LeftUpLeg  -45.2525 -23.0437 9.55351
LeftLeg  91.6202 -12.5664 -9.48688
LeftFoot  -12.2893 -0.0905591 5.56896
LeftToes  1.17689e-009 -8.96121e-011 5.75302e-011
21
root  -44.7484 19.2266 -4.41264 -113.104 75.4645 -168.459
RightUpLeg  -75.2216 -12.1502 7.12451
RightLeg  131.015 4.2164 8.54875
RightFoot  -28.4472 -0.940754 -6.96316
RightToes  -7.56701e-010 -1.59028e-015 9.93923e-017
Spine  62.8726 0.0336431 8.62229
Spine1  -12.1849 4.46866 16.3109
HEad  -57.205 -2.71468 0.973136
LeftShoulder1  9.93923e-017 0 1.22299e-017
LeftArm  11.7009 -69.9193 -85.589
LeftForeArm  -49.4167 -70.9857 82.9383
LeftHand  2.78129 18.8055 0.932949
RightShoulder  1.98785e-016 -4.96962e-017 1.55301e-017
RightArm  4.52501 3.48558 63.063
RightForeArm  -70.4291 59.5466 -120.967
RightHand  2.1799 -13.6675 -13.8701
LeftUpLeg  -40.8311 -25.0483 10.4884
LeftLeg  89.422 -12.8449 -9.43227
LeftFoot  -12.5508 -0.0655256 3.83623
LeftToes  1.17689e-009 -8.96121e-011 5.75302e-011
22
root  -43.9605 19.1768 -4.22905 -119.813 73.5154 -172.728
RightUpLeg  -79.1442 -12.6343 8.60953
RightLeg  131.538 5.5633 6.94829
RightFoot  -28.6482 -1.13648 -8.30596
RightToes  -7.56701e-010 -1.59028e-015 9.93923e-017
Spine  62.1012 -0.667545 8.34665
Spine1  -7.74767 2.77793 17.8986
HEad  -57.8102 -1.45155 2.02725
LeftShoulder1  9.93923e-017 0 1.22299e-017
LeftArm  15.4172 -69.1999 -88.2019
LeftForeArm  -51.0424 -71.2158 86.4531
LeftHand  2.85063 19.4633 0.64171
RightShoulder  1.98785e-016 -4.96962e-017 1.55301e-017
RightArm  -0.496837 9.81354 59.2336
RightForeArm  -72.6753 60.0374 -118.953
RightHand  2.94 -15.394 -18.3161
LeftUpLeg  -36.0084 -26.8161 11.1495
LeftLeg  86.8083 -13.1653 -9.29761
LeftFoot  -12.9083 -0.048847 2.57155
LeftToes  1.17689e-009 -8.96121e-011 5.75302e-011
23
root  -43.1439 19.0904 -3.99286 -123.804 71.7861 -174.669
RightUpLeg  -81.2959 -12.0661 9.32153
RightLeg  130.391 6.4732 6.1812
RightFoot  -27.1028 -0.938192 -7.54336
RightToes  -7.56701e-010 -1.59028e-015 9.93923e-017
Spine  59.2185 -1.0141 8.19568
Spine1  0.223599 0.715222 19.1223
HEad  -60.5576 -0.580196 3.4503
LeftShoulder1  9.93923e-017 0 1.22299e-017
LeftArm  19.0976 -69.7396 -90.0055
LeftForeArm  -55.9953 -71.5304 92.601
LeftHand  3.02469 19.7295 1.80134
RightShoulder  1.98785e-016 -4.96962e-017 1.55301e-017
RightArm  -8.09983 18.3066 54.5716
RightForeArm  -73.426 60.8361 -114.252
RightHand  3.87049 -17.1186 -23.0083
LeftUpLeg  -31.2944 -27.9472 11.8663
LeftLeg  83.7784 -13.4838 -8.74493
LeftFoot  -13.1885 -0.0417782 1.80815
LeftToes  1.17689e-009 -8.96121e-011 5.75302e-011
24
root  -42.3411 18.932 -3.73567 -125.759 70.4238 -175.461
RightUpLeg  -81.714 -10.5924 8.98528
RightLeg  130.059 5.71527 7.08984
RightFoot  -22.4177 -0.516209 -6.43297
RightToes  -7.56701e-010 -1.59028e-015 9.93923e-017
Spine  59.2892 -1.57024 8.59768
Spine1  0.466268 0.260241 19.3216
HEad  -59.3732 -0.637929 4.62301
LeftShoulder1  9.93923e-017 0 1.22299e-017
LeftArm  23.1314 -66.0944 -92.7254
LeftForeArm  -63.2151 -71.6777 100.223
LeftHand  3.33357 20.0457 3.9602
RightShoulder  1.98785e-016 -4.96962e-017 1.55301e-017
RightArm  -14.4067 23.2405 50.3961
RightForeArm  -71.058 61.4891 -107.821
RightHand  4.23592 -17.6456 -24.8173
LeftUpLeg  -27.4872 -28.4153 12.6954
LeftLeg  80.6363 -13.7021 -7.77785
LeftFoot  -13.2741 -0.0403456 1.42017
LeftToes  1.17689e-009 -8.96121e-011 5.75302e-011
25
root  -41.536 18.6306 -3.43575 -127.24 69.657 -176.781
RightUpLeg  -80.9106 -8.55522 8.20258
RightLeg  130.975 4.05173 8.73279
RightFoot  -16.378 -0.219523 -7.67406
RightToes  -7.56701e-010 -1.59028e-015 9.93923e-017
Spine  59.4446 -2.341 8.96761
Spine1  -0.994914 0.114132 18.2775
HEad  -57.8266 -1.00843 5.60004
LeftShoulder1  9.93923e-017 0 1.22299e-017
LeftArm  25.5499 -61.8237 -94.3143
LeftForeArm  -71.781 -71.5296 108.429
LeftHand  3.73885 20.4161 6.68736
RightShoulder  1.98785e-016 -4.96962e-017 1.55301e-017
RightArm  -20.5467 28.0996 46.5939
RightForeArm  -64.4639 61.741 -99.3299
RightHand  4.20872 -17.5091 -24.9729
LeftUpLeg  -24.795 -28.364 13.3242
LeftLeg  77.7667 -13.7915 -6.76227
LeftFoot  -13.3331 -0.0395961 1.23752
LeftToes  1.17689e-009 -8.96121e-011 5.75302e-011
26
root  -40.7257 18.2324 -3.04313 -129.761 69.4323 -179.704
RightUpLeg  -78.9685 -6.57397 8.09369
RightLeg  131.593 3.68559 8.96632
RightFoot  -13.896 -0.0656422 -8.84342
RightToes  -7.56701e-010 -1.59028e-015 9.93923e-017
Spine  60.5225 -3.37923 9.16434
Spine1  -5.0603 0.10004 16.4554
HEad  -55.7474 -1.68067 6.56391
LeftShoulder1  9.93923e-017 0 1.22299e-017
LeftArm  26.4254 -56.457 -94.7085
LeftForeArm  -82.5749 -70.9491 117.921
LeftHand  4.16791 20.4789 10.0202
RightShoulder  1.98785e-016 -4.96962e-017 1.55301e-017
RightArm  -25.6582 32.9291 43.1843
RightForeArm  -53.5903 61.1318 -88.3845
RightHand  4.18144 -17.3661 -25.1611
LeftUpLeg  -22.7796 -28.2193 13.5214
LeftLeg  75.1431 -13.8086 -5.91628
LeftFoot  -13.1976 -0.0407745 1.30182
LeftToes  1.17689e-009 -8.96121e-011 5.75302e-011
27
root  -39.9141 17.883 -2.53084 -132.159 69.6614 177.343
RightUpLeg  -76.7285 -4.67472 9.61909
RightLeg  131.113 5.94532 6.6234
RightFoot  -14.5641 -0.11501 -8.87279
RightToes  -7.56701e-010 -1.59028e-015 9.93923e-017
Spine  60.8639 -3.68423 9.39428
Spine1  -7.11281 0.298768 14.8249
HEad  -55.4584 -3.15167 7.87698
LeftShoulder1  9.93923e-017 0 1.22299e-017
LeftArm  28.3871 -51.8217 -96.5826
LeftForeArm  -94.5529 -69.4487 129.198
LeftHand  4.42949 19.4234 14.4928
RightShoulder  1.98785e-016 -4.96962e-017 1.55301e-017
RightArm  -31.805 37.9558 37.6967
RightForeArm  -41.0965 59.3836 -76.6047
RightHand  4.17671 -17.2752 -25.402
LeftUpLeg  -20.9748 -27.6251 13.7023
LeftLeg  72.2912 -13.878 -5.44981
LeftFoot  -12.309 -0.0568009 2.01089
LeftToes  1.17689e-009 -8.96121e-011 5.75302e-011
